<svg xmlns="http://www.w3.org/2000/svg" width="122" height="122" fill="none" viewBox="0 0 122 122">
  <path fill="#fff" d="M110.99 56.37H65.63a3.6 3.6 0 00-3.6 3.6v49.68a3.6 3.6 0 003.6 3.6h45.36a3.6 3.6 0 003.6-3.6V59.97a3.6 3.6 0 00-3.6-3.6z"/>
  <path fill="#008481" d="M111 58.37a1.6 1.6 0 011.6 1.6v49.67a1.6 1.6 0 01-1.6 1.6H65.63a1.6 1.6 0 01-1.6-1.6V60a1.6 1.6 0 011.6-1.6H111v-.03zm0-3.97H65.63A5.61 5.61 0 0060 60v49.67a5.612 5.612 0 005.6 5.6H111a5.611 5.611 0 005.6-5.6V60a5.61 5.61 0 00-5.6-5.6z"/>
  <path fill="#00C1BF" d="M111.04 64.24l-45.41 45.4h45.41v-45.4z" opacity=".15"/>
  <path stroke="#00C1BF" stroke-miterlimit="10" stroke-width="2" d="M65.77 98.44l45.27-.01M65.77 85.62l45.27-.01M65.77 72.8l45.27-.01M80.22 109.7V72.19M96.41 109.7V72.19"/>
  <path fill="#2DA048" d="M86.95 97.99l-5.56-4.96 1.89-2.11 3.35 2.99 6.42-7.87 2.19 1.79-8.29 10.16z"/>
  <path stroke="#008481" stroke-linecap="round" stroke-miterlimit="10" stroke-width="4" d="M98.6 51.68v10.37M76.43 51.68v10.37"/>
  <g>
    <path fill="#fff" d="M38.09 82.46c17.452 0 31.6-14.148 31.6-31.6s-14.148-31.6-31.6-31.6-31.6 14.148-31.6 31.6 14.148 31.6 31.6 31.6z"/>
    <path fill="#008481" d="M38.09 21.26a29.6 29.6 0 110 59.2 29.6 29.6 0 010-59.2zm0-4a33.6 33.6 0 1033.6 33.6 33.64 33.64 0 00-33.6-33.6z"/>
    <path stroke="#00C1BF" stroke-linecap="round" stroke-miterlimit="10" stroke-width="2" d="M38.09 75.97c13.868 0 25.11-11.242 25.11-25.11 0-13.868-11.242-25.11-25.11-25.11-13.868 0-25.11 11.242-25.11 25.11 0 13.868 11.242 25.11 25.11 25.11z"/>
    <path fill="#57B520" d="M25.63 38.5a2.13 2.13 0 100-4.26 2.13 2.13 0 000 4.26zM38.09 52.99a2.13 2.13 0 100-4.26 2.13 2.13 0 000 4.26z"/>
    <path fill="#57B520" d="M39.71 49.48l-3.24 2.77-12.46-14.49 3.24-2.77 12.46 14.49zM48.76 52.77a2.13 2.13 0 100-4.26 2.13 2.13 0 000 4.26z"/>
    <path fill="#57B520" d="M38.09 52.99a2.13 2.13 0 100-4.26 2.13 2.13 0 000 4.26z"/>
    <path fill="#57B520" d="M48.72 48.506l-10.667.22.088 4.258 10.668-.22-.088-4.258z"/>
    <path fill="#57B520" d="M38.09 55.18a4.32 4.32 0 100-8.64 4.32 4.32 0 000 8.64z"/>
    <g opacity=".15" style="mix-blend-mode:multiply">
      <path fill="#00C1BF" d="M50.76 32.46a22.43 22.43 0 01-31.07 31.07 22.44 22.44 0 1031.07-31.07z"/>
    </g>
    <path stroke="#008481" stroke-linecap="round" stroke-linejoin="round" stroke-width="5" d="M14.28 22.31l3.17 3.16"/>
    <g>
      <path stroke="#008481" stroke-linecap="round" stroke-linejoin="round" stroke-width="5" d="M38.19 11.21v7.18M29.81 11.21h16.76"/>
    </g>
    <path stroke="#008481" stroke-linecap="round" stroke-linejoin="round" stroke-width="5" d="M62.03 22.31l-3.16 3.16"/>
  </g>
</svg>
