<svg xmlns="http://www.w3.org/2000/svg" width="122" height="122" fill="none" viewBox="0 0 122 122">
  <path fill="#fff" stroke="#11827F" stroke-linecap="round" stroke-linejoin="round" stroke-width="4" d="M97.83 74.48V19.71a2.06 2.06 0 00-2-2.07H18.54a2.06 2.06 0 00-2.06 2.07v54.77h-5.94v4.69a4.13 4.13 0 004.11 4.15h85a4.132 4.132 0 004.11-4.15v-4.69h-5.93z"/>
  <path fill="#53B700" d="M42.38 40.82a11.66 11.66 0 10-.08 23.32 11.66 11.66 0 00.08-23.32zm0 17.09a5.44 5.44 0 110-10.88 5.44 5.44 0 010 10.88z" opacity=".3"/>
  <path fill="#53B700" d="M46.07 41.4l-2 5.9a5.74 5.74 0 013.72 5.17H54c0-4.23-3.31-9.53-7.93-11.07z" opacity=".6"/>
  <path fill="#53B700" d="M42.38 64.1C48.82 64.1 54 59.89 54 52.47h-6.18a5.31 5.31 0 01-5.44 5.42A5.42 5.42 0 0139 56.71l-3.81 4.89a11.57 11.57 0 007.19 2.5z"/>
  <path fill="#18BEBD" d="M93.72 20.83v48.56H45.16l48.56-48.56z" opacity=".15"/>
  <path stroke="#18BEBD" stroke-linecap="round" stroke-miterlimit="10" stroke-width="2" d="M21.6 74.67h71.12"/>
  <path fill="#53B506" d="M83.59 29.01H30.73v5.34h52.86v-5.34z"/>
  <path stroke="#18BEBD" stroke-linecap="round" stroke-miterlimit="10" stroke-width="2" d="M62.51 45.8h20.02M62.51 57.17h20.02"/>
  <g>
    <path fill="#fff" d="M110.55 43.8H77.83a2 2 0 00-2 2v57.65a2 2 0 002 2h32.72a2 2 0 002-2V45.8a2 2 0 00-2-2z"/>
    <path fill="#11827F" d="M110.54 45.8v57.65H77.83V45.8h32.71zm0-4H77.83a4 4 0 00-4 4v57.65a3.998 3.998 0 004 4h32.71a4 4 0 004-4V45.8a3.997 3.997 0 00-4-4z"/>
    <path fill="#2CB4B2" d="M108.63 51.45v36.99H80.29l28.34-36.99z" opacity=".15"/>
    <path stroke="#2CB4B2" stroke-linecap="round" stroke-miterlimit="10" stroke-width="2" d="M80.29 90.82l27.79-.01M91.39 48.97l5.59-.01"/>
    <path fill="#62B032" d="M94.18 100.29a3.16 3.16 0 100-6.32 3.16 3.16 0 000 6.32z"/>
  </g>
  <g>
    <path fill="#57B320" d="M94.46 80.48c6.434 0 11.65-5.216 11.65-11.65s-5.216-11.65-11.65-11.65-11.65 5.216-11.65 11.65 5.216 11.65 11.65 11.65z"/>
    <path stroke="#fff" stroke-linecap="round" stroke-linejoin="round" stroke-width="2" d="M98.62 62.88l.26 2.96-2.96.25M89.58 66.77a5.3 5.3 0 018.62-1.68"/>
    <g>
      <path stroke="#fff" stroke-linecap="round" stroke-linejoin="round" stroke-width="2" d="M90.29 74.77l-.25-2.96 2.96-.25M99.33 70.88a5.3 5.3 0 01-8.61 1.69"/>
    </g>
  </g>
</svg>
