<svg xmlns="http://www.w3.org/2000/svg" width="122" height="122" fill="none" viewBox="0 0 122 122">
  <path stroke="#008481" stroke-linecap="round" stroke-linejoin="round" stroke-width="3.52" d="M77.75 20.01h11.36v11.36M94.39 100.13h-67.7"/>
  <path fill="#57B520" d="M88.23 46.84H77.38a1.76 1.76 0 00-1.76 1.76v40.19c0 .972.788 1.76 1.76 1.76h10.85a1.76 1.76 0 001.76-1.76V48.6a1.76 1.76 0 00-1.76-1.76z"/>
  <path fill="#00C1BF" d="M65.97 59.52H55.12a1.76 1.76 0 00-1.76 1.76v27.5c0 .972.788 1.76 1.76 1.76h10.85a1.76 1.76 0 001.76-1.76v-27.5a1.76 1.76 0 00-1.76-1.76zM43.7 72.21H32.85a1.76 1.76 0 00-1.76 1.76v14.81c0 .972.788 1.76 1.76 1.76H43.7a1.76 1.76 0 001.76-1.76V73.97a1.76 1.76 0 00-1.76-1.76z"/>
  <path stroke="#008481" stroke-linecap="round" stroke-linejoin="round" stroke-width="3.52" d="M89.11 20.01L65.44 41.53l-6.24-6.87-27.09 24.62"/>
</svg>
