<svg xmlns="http://www.w3.org/2000/svg" width="122" height="122" fill="none" viewBox="0 0 122 122">
  <path fill="#fff" stroke="#008481" stroke-linecap="round" stroke-linejoin="round" stroke-width="4" d="M97.69 31.94a21.52 21.52 0 00-41.84-7 14.43 14.43 0 002.67 28.66H93a11.349 11.349 0 004.73-21.66h-.04z"/>
  <path fill="#00C1BF" d="M93.5 34.39a17.26 17.26 0 00-8.38-17.32 18.32 18.32 0 011.33 6.84A18.51 18.51 0 0161.2 41.16a17.49 17.49 0 0015 8.44h16.53a7.62 7.62 0 00.77-15.21z" opacity=".2"/>
  <path fill="#fff" d="M62.77 35.57H18.78a1.97 1.97 0 00-1.97 1.97v72.99a1.97 1.97 0 001.97 1.97h43.99a1.97 1.97 0 001.97-1.97V37.54a1.97 1.97 0 00-1.97-1.97z"/>
  <path fill="#008481" d="M62.78 37.54v73h-44v-73h44zm0-3.94h-44a3.93 3.93 0 00-3.93 3.94v73a3.93 3.93 0 003.93 3.93h44a3.939 3.939 0 002.779-1.151 3.928 3.928 0 001.151-2.779v-73a3.93 3.93 0 00-3.93-3.94z"/>
  <path fill="#00C1BF" d="M60.35 44.14v47.12h-38.4l38.4-47.12z" opacity=".15"/>
  <path stroke="#00C1BF" stroke-linecap="round" stroke-miterlimit="10" stroke-width="2" d="M21.95 94.47l37.65-.01M36.99 40.77l7.57-.02"/>
  <path fill="#57B520" d="M40.78 107.03a4 4 0 100-8 4 4 0 000 8z"/>
  <g>
    <path fill="#00C1BF" d="M36.59 53.69H29.7a2 2 0 00-2 2v6.89a2 2 0 002 2h6.89a2 2 0 002-2v-6.89a2 2 0 00-2-2zM51.85 53.69h-6.89a2 2 0 00-2 2v6.89a2 2 0 002 2h6.89a2 2 0 002-2v-6.89a2 2 0 00-2-2z"/>
    <path fill="#57B520" d="M36.59 68.95H29.7a2 2 0 00-2 2v6.89a2 2 0 002 2h6.89a2 2 0 002-2v-6.89a2 2 0 00-2-2z"/>
    <path fill="#00C1BF" d="M51.85 68.95h-6.89a2 2 0 00-2 2v6.89a2 2 0 002 2h6.89a2 2 0 002-2v-6.89a2 2 0 00-2-2z"/>
  </g>
</svg>
