<svg xmlns="http://www.w3.org/2000/svg" width="122" height="122" fill="none" viewBox="0 0 122 122">
  <path fill="#fff" stroke="#008481" stroke-linecap="round" stroke-linejoin="round" stroke-width="4" d="M87.65 20.5a14 14 0 00-14 14v7.33C72 43 71.86 44.22 71.86 46.46a7.79 7.79 0 003.46 6c.67 2 3.34 7.09 3.74 9.25.31 1.65-2.42 3.77-3.93 4.79-3.24 2.2-6.6 3.18-8.94 6.54a18.77 18.77 0 00-3 10.83 38.73 38.73 0 0024.51 8.88 38.09 38.09 0 0024.5-8.88 18.844 18.844 0 00-3-10.83c-2.35-3.36-5.7-4.34-9-6.54-1.51-1-4.24-3.14-3.93-4.79.4-2.16 3.07-7.21 3.74-9.25a7.793 7.793 0 003.46-6c0-2.24-.16-3.45-1.76-4.61v-7.33a13.992 13.992 0 00-8.68-12.97 14.002 14.002 0 00-5.38-1.05z"/>
  <path fill="#00C1BF" d="M100.08 74.26a18.259 18.259 0 01-7.92 15A35.149 35.149 0 00109 82.37a15.003 15.003 0 00-2.44-7.63c-1.23-1.77-2.88-2.69-5-3.85-.68-.39-1.39-.78-2.1-1.22.4 1.498.608 3.04.62 4.59z" opacity=".2"/>
  <path stroke="#00C1BF" stroke-linecap="round" stroke-miterlimit="10" stroke-width="2" d="M80.23 28.94a27.86 27.86 0 0014.83 0M97.19 68.5a13.73 13.73 0 01-19.09 0"/>
  <g>
    <path fill="#fff" stroke="#008481" stroke-linecap="round" stroke-linejoin="round" stroke-width="4" d="M60.73 83.36a19.9 19.9 0 00-3.22-11.43c-2.48-3.56-6-4.6-9.46-6.92-1.59-1.07-1.66-3.32-1.33-5.06.43-2.28 1.37-7.62 2.07-9.77a8.26 8.26 0 003.66-6.34c0-2.38-1.11-3.65-2.8-4.88v-2.33c0-8.18 1.27-18.07-14.82-18.07-3.91 0-10.33 1.41-10.33 5.72 0 .25-5.11-.6-4.49 12.35V39c-1.69 1.23-2.8 2.5-2.8 4.88a8.24 8.24 0 003.66 6.34c.7 2.15 1.64 7.49 2.07 9.77.32 1.74.26 4-1.33 5.06-3.44 2.32-7 3.36-9.46 6.92a19.9 19.9 0 00-3.22 11.39 40.89 40.89 0 0025.9 9.39 40.28 40.28 0 0025.9-9.39z"/>
    <path stroke="#00C1BF" stroke-linecap="round" stroke-miterlimit="10" stroke-width="2" d="M28 26.56s6.58 2.3 15.67 0"/>
    <path fill="#00C1BF" d="M48 73.21a19.32 19.32 0 01-8.4 15.91 37.29 37.29 0 0017.82-7.34 15.85 15.85 0 00-2.58-8.06c-1.3-1.87-3.05-2.84-5.26-4.07-.72-.41-1.47-.83-2.23-1.29a19 19 0 01.65 4.85z" opacity=".2"/>
    <path stroke="#00C1BF" stroke-linecap="round" stroke-miterlimit="10" stroke-width="2" d="M44.91 68.36a14.49 14.49 0 01-20.16 0"/>
  </g>
  <g>
    <path fill="#fff" stroke="#008481" stroke-linecap="round" stroke-linejoin="round" stroke-width="4" d="M64.05 30.79c-6.17-4.82-22 4.8-22 18.55v39.78h38.36V49.34c0-7.85-4.97-18.55-16.36-18.55z"/>
    <path stroke="#00C1BF" stroke-linecap="round" stroke-linejoin="round" stroke-width="2" d="M71.79 76c-2.13-1.41-4.25-3.22-3.57-5.68.91-3.35 5.43-7.35 5.43-10.9v-6.34"/>
    <path fill="#fff" d="M46.75 78.39c-3.46 2.29-5.88 1.71-8.38 5.22-2.34 3.29-3.24 4.76-3.24 8.73 7 5.68 16.26 10.19 26.11 10.19 9.85 0 19-4.41 26.11-10.19 0-4-.9-5.44-3.25-8.73-2.5-3.51-4.53-2.58-8-4.87"/>
    <path stroke="#008481" stroke-linecap="round" stroke-linejoin="round" stroke-width="4" d="M46.75 78.39c-3.46 2.29-5.88 1.71-8.38 5.22-2.34 3.29-3.24 4.76-3.24 8.73 7 5.68 16.26 10.19 26.11 10.19 9.85 0 19-4.41 26.11-10.19 0-4-.9-5.44-3.25-8.73-2.5-3.51-4.53-2.58-8-4.87"/>
    <path stroke="#00C1BF" stroke-linecap="round" stroke-linejoin="round" stroke-width="2" d="M48.83 54.64v4.77c0 3.55 4.51 7.55 5.43 10.9.67 2.46-1.45 4.27-3.58 5.68M73.13 48.54a14.36 14.36 0 00-8.23-9.4c-1.69 6.38-8.72 11.08-15.77 11.08"/>
    <path fill="#00C1BF" d="M74.56 85.74a15.77 15.77 0 01-6.06 12.44 41.21 41.21 0 0015.22-7.4c-.22-1.63-.86-2.6-2.49-4.88-1-1.44-3.22-2.43-5.53-3.47l-1.7-.77a15.69 15.69 0 01.56 4.08z" opacity=".15"/>
    <path stroke="#00C1BF" stroke-linecap="round" stroke-miterlimit="10" stroke-width="2" d="M72.25 80.87c-1.77 1.73-5.19 4.45-7.75 6.43a5.34 5.34 0 01-6.52 0c-2.57-2-6-4.7-7.75-6.43"/>
  </g>
</svg>
