<svg xmlns="http://www.w3.org/2000/svg" width="122" height="122" fill="none" viewBox="0 0 122 122">
  <path fill="#fff" stroke="#008481" stroke-linecap="round" stroke-linejoin="round" stroke-width="4" d="M86 58.56a30.27 30.27 0 00-58.85-9.77A20.29 20.29 0 0030.94 89h48.43A16 16 0 0086 58.56z"/>
  <path fill="#00C1BF" d="M32.57 71.57a26.64 26.64 0 0023.12 13.62h23.6a12.13 12.13 0 003.12-23.86l-.4-.1v-.42c.06-.78.09-1.43.09-2.06a26.64 26.64 0 00-13.59-23.12 27.101 27.101 0 012.15 10.65 27.47 27.47 0 01-27.45 27.44 27 27 0 01-10.64-2.15z" opacity=".2"/>
  <g>
    <path fill="#fff" d="M94.44 111.18a2 2 0 01-.82-.18c-1.76-.78-17.18-8-17.18-17.78v-23a2 2 0 011.23-1.85c.245-.099.506-.15.77-.15a2 2 0 011.41.58 9.33 9.33 0 0013.17 0 2 2 0 011.42-.58 2 2 0 011.41.58 9.33 9.33 0 0013.17 0 2 2 0 012.18-.43 1.994 1.994 0 011.24 1.85v23c0 9.83-15.43 17-17.19 17.78-.254.116-.53.177-.81.18z"/>
    <path fill="#008481" d="M110.44 70.18v23c0 8.81-16 16-16 16s-16-7.15-16-16v-23a11.35 11.35 0 0016 0 11.35 11.35 0 0016 0zm0-4a3.999 3.999 0 00-2.83 1.16 7.33 7.33 0 01-10.35 0 4 4 0 00-5.65 0 7.33 7.33 0 01-10.35 0 4 4 0 00-2.82-1.16 4.14 4.14 0 00-1.54.3 4 4 0 00-2.46 3.7v23c0 11.09 16.49 18.77 18.37 19.61a4 4 0 001.63.35 4.051 4.051 0 001.63-.35c1.88-.84 18.37-8.52 18.37-19.61v-23a3.996 3.996 0 00-2.47-3.7 4.12 4.12 0 00-1.53-.3z"/>
    <g>
      <path fill="#00C1BF" d="M80.72 74.2l-.28-.14v.42l.28-.28z" opacity=".2"/>
      <path fill="#00C1BF" d="M108.42 74.07l-25.09 25.1c3.16 3.45 8.15 6.37 11.11 7.8 4.56-2.21 14-8 14-13.75V74.06l-.02.01z" opacity=".15"/>
    </g>
  </g>
</svg>
