<svg xmlns="http://www.w3.org/2000/svg" width="122" height="122" fill="none" viewBox="0 0 122 122">
  <path fill="#fff" d="M91.07 25.61H30.02a2.1 2.1 0 00-2.1 2.1v74.61c0 1.16.94 2.1 2.1 2.1h61.05a2.1 2.1 0 002.1-2.1V27.71a2.1 2.1 0 00-2.1-2.1z"/>
  <path fill="#008481" d="M91.07 27.71v74.61H30V27.71h61.07zm0-4.19H30a4.19 4.19 0 00-4.2 4.19v74.61a4.201 4.201 0 004.2 4.2h61.07a4.2 4.2 0 004.19-4.2V27.71a4.19 4.19 0 00-4.19-4.19z"/>
  <path fill="#008481" d="M73.05 32.64H48.02a2.52 2.52 0 00-2.52 2.52v.01a2.52 2.52 0 002.52 2.52h25.03a2.52 2.52 0 002.52-2.52v-.01a2.52 2.52 0 00-2.52-2.52z"/>
  <path fill="#fff" d="M67.5 16.66H53.57a2.1 2.1 0 00-2.1 2.1V33c0 1.16.94 2.1 2.1 2.1H67.5a2.1 2.1 0 002.1-2.1V18.76a2.1 2.1 0 00-2.1-2.1z"/>
  <path fill="#008481" d="M67.51 18.76V33H53.57V18.76h13.94zm0-4.19H53.57a4.19 4.19 0 00-4.2 4.19V33a4.19 4.19 0 004.2 4.19h13.94A4.19 4.19 0 0071.7 33V18.76a4.19 4.19 0 00-4.19-4.19z"/>
  <path stroke="#00C1BF" stroke-linecap="round" stroke-linejoin="round" stroke-width="2" d="M73.71 78.85A10.12 10.12 0 0072.08 73c-1.27-1.82-3.07-2.34-4.82-3.52a2.48 2.48 0 01-.67-2.58c.21-1.16.69-3.87 1-5a4.19 4.19 0 001.86-3.23 2.81 2.81 0 00-1.42-2.48v-1.12c0-4.17.65-9.2-7.54-9.2-2 0-5.26.72-5.26 2.91 0 .13-2.6-.31-2.29 6.29v1.18a2.82 2.82 0 00-1.42 2.48A4.19 4.19 0 0053.43 62c.36 1.09.84 3.81 1 5a2.48 2.48 0 01-.67 2.58c-1.7 1.11-3.5 1.63-4.76 3.42a10.06 10.06 0 00-1.64 5.82l26.35.03z"/>
  <path stroke="#57B520" stroke-linecap="round" stroke-linejoin="round" stroke-width="2.1" d="M74.22 90.55c-2.28 0-2.28 2.67-4.56 2.67s-2.28-2.67-4.56-2.67-2.28 2.67-4.56 2.67-2.28-2.67-4.54-2.67c-2.26 0-2.28 2.67-4.56 2.67s-2.28-2.67-4.57-2.67"/>
  <g opacity=".15" style="mix-blend-mode:multiply">
    <path fill="#00C1BF" d="M89.07 43.27l-57.05 57.06h57.05V43.27z"/>
  </g>
</svg>
