<svg xmlns="http://www.w3.org/2000/svg" width="122" height="122" fill="none" viewBox="0 0 122 122">
  <path fill="#fff" stroke="#008380" stroke-linecap="round" stroke-linejoin="round" stroke-width="3.65" d="M93.15 92.35v-51.7a2 2 0 00-1.94-2H18.3a2 2 0 00-1.94 2v51.7h-5.61v4.43a3.9 3.9 0 003.88 3.91h80.24a3.885 3.885 0 003.88-3.91v-4.43h-5.6z"/>
  <path fill="#20BBBB" d="M89.26 41.71v45.84H43.43l45.83-45.84z" opacity=".15"/>
  <path stroke="#20BBBB" stroke-linecap="round" stroke-miterlimit="10" stroke-width="2" d="M21.19 92.53h67.13"/>
  <path fill="#fff" stroke="#008380" stroke-linecap="round" stroke-linejoin="round" stroke-width="3.99" d="M103.35 15.58h-44.2a5.931 5.931 0 00-5.9 6v33.49a5.93 5.93 0 005.9 6h1.66v10.51L71.24 61h32.11a5.926 5.926 0 004.199-1.772A5.936 5.936 0 00109.25 55V21.54a5.936 5.936 0 00-3.633-5.497 5.93 5.93 0 00-2.267-.463z"/>
  <path fill="#20BBBB" d="M105.25 19.58v37.45H67.79l37.46-37.45z" opacity=".15"/>
  <path fill="#56B447" d="M67.56 42.14a4 4 0 100-8 4 4 0 000 8zM81.25 42.14a4 4 0 100-8 4 4 0 000 8zM94.93 42.14a4 4 0 100-8 4 4 0 000 8z"/>
  <path fill="#20BBBB" d="M38 84.5c-5 0-11.71-.77-13.83-3 0-2.07.32-2.64 1.51-4.36 1.19-1.72 4.73-2.78 6.49-4a2.53 2.53 0 00.69-2.6c-.22-1.17-.71-3.43-1.07-4.54-1-.63-2.23-1.61-2.35-2.77-.19-1.71.44-3 1.44-3v-1.17c0-4.11.86-8.42 7.12-8.42s7.12 4.31 7.12 8.42v1.19c1 0 1.62 1.27 1.44 3-.12 1.16-1.31 2.14-2.35 2.77-.36 1.11-.85 3.37-1.07 4.54a2.53 2.53 0 00.69 2.6c1.76 1.19 5.22 2.15 6.49 4 1.27 1.85 1.51 2.29 1.51 4.36-2.08 2.21-8.74 2.98-13.83 2.98z"/>
</svg>
